<svg t="1623141154249" class="icon" viewBox="0 0 1024 1024" version="1.1"
  xmlns="http://www.w3.org/2000/svg" p-id="2111" width="200" height="200">
  <path d="M853.333 938.667H768v-85.334a128 128 0 0 0-128-128H384a128 128 0 0 0-128 128v85.334h-85.333v-85.334A213.333 213.333 0 0 1 384 640h256a213.333 213.333 0 0 1 213.333 213.333v85.334zM512 554.667a256 256 0 1 1 0-512 256 256 0 0 1 0 512z m0-85.334A170.667 170.667 0 1 0 512 128a170.667 170.667 0 0 0 0 341.333z" fill="rgb(8, 113, 233)" p-id="2112"></path>
</svg>
