<svg t="1623141030155" class="icon" viewBox="0 0 1024 1024" version="1.1"
  xmlns="http://www.w3.org/2000/svg" p-id="1968" width="200" height="200">
  <path d="M810.667 810.667V418.09L512 182.485 213.333 418.091v392.576h597.334zM896 853.333A42.667 42.667 0 0 1 853.333 896H170.667A42.667 42.667 0 0 1 128 853.333V397.397a42.667 42.667 0 0 1 16.213-33.493l341.334-269.27a42.667 42.667 0 0 1 52.906 0l341.334 269.227A42.667 42.667 0 0 1 896 397.397v455.936zM298.667 512H384a128 128 0 0 0 256 0h85.333a213.333 213.333 0 0 1-426.666 0z" fill="#CDCDCD" p-id="1969"></path>
</svg>
