<svg t="1623139194924" class="icon" viewBox="0 0 1024 1024" version="1.1"
  xmlns="http://www.w3.org/2000/svg" p-id="1449" width="200" height="200">
  <path d="M170.667 273.664L32.299 135.339l60.373-60.374 138.325 138.368h650.326a42.667 42.667 0 0 1 40.874 54.912l-102.4 341.334A42.667 42.667 0 0 1 778.923 640H256v85.333h469.333v85.334h-512A42.667 42.667 0 0 1 170.667 768V273.664zM256 298.667v256h491.179l76.8-256H256z m-21.333 682.666a64 64 0 1 1 0-128 64 64 0 0 1 0 128z m512 0a64 64 0 1 1 0-128 64 64 0 0 1 0 128z" fill="#CDCDCD" p-id="1450"></path>
</svg>
